<?xml version="1.0" encoding="utf-8"?>
<!-- Generator: Adobe Illustrator 24.0.2, SVG Export Plug-In . SVG Version: 6.00 Build 0)  -->
<svg version="1.1" id="Layer_1" xmlns="http://www.w3.org/2000/svg" xmlns:xlink="http://www.w3.org/1999/xlink" x="0px" y="0px"
	 viewBox="0 0 653.86 168.28" style="enable-background:new 0 0 653.86 168.28;" xml:space="preserve">
<g>
	<path d="M26.58,92.03V22.67h21.16l5.81,42.31l5.81-42.31h21.32v69.37H68V42.05l-8,49.99H47.57l-8.48-49.99v49.99H26.58z"/>
	<path d="M111.2,92.03V22.67h13.41v69.37H111.2z"/>
	<path d="M155.21,92.03V22.67h13.89v57.58h14.29v11.79H155.21z"/>
	<path d="M212.3,92.03V22.67h13.89v57.58h14.29v11.79H212.3z"/>
	<path d="M269.4,92.03V22.67h27.78v13.4h-13.65v13.49h13.08v13.08h-13.08v15.91h14.53v13.48H269.4z"/>
	<path d="M370.98,92.03V22.67h13.41v69.37H370.98z"/>
	<path d="M417.81,87.99c-2.8-3.12-4.2-8.16-4.2-15.1v-6.78h13.65v8.64c0,3.45,1.1,5.17,3.31,5.17c1.24,0,2.1-0.36,2.58-1.09
		c0.49-0.73,0.73-1.95,0.73-3.67c0-2.26-0.27-4.13-0.81-5.61c-0.54-1.48-1.23-2.72-2.06-3.71c-0.84-0.99-2.33-2.54-4.48-4.64
		l-5.98-5.98c-4.63-4.52-6.95-9.53-6.95-15.02c0-5.92,1.36-10.43,4.08-13.53c2.72-3.1,6.69-4.64,11.91-4.64
		c6.25,0,10.74,1.66,13.49,4.97c2.74,3.31,4.12,8.49,4.12,15.54h-14.13L433,37.77c0-0.91-0.26-1.64-0.77-2.18
		c-0.51-0.54-1.23-0.81-2.14-0.81c-1.08,0-1.89,0.3-2.42,0.89c-0.54,0.59-0.81,1.4-0.81,2.42c0,2.26,1.29,4.6,3.88,7.03l8.08,7.75
		c1.88,1.83,3.44,3.57,4.68,5.21c1.24,1.64,2.23,3.58,2.99,5.81c0.75,2.24,1.13,4.89,1.13,7.95c0,6.84-1.25,12.02-3.75,15.54
		c-2.5,3.53-6.64,5.29-12.4,5.29C425.16,92.68,420.61,91.12,417.81,87.99z"/>
	<path d="M481.04,87.55c-2.91-3.42-4.36-8.22-4.36-14.41V40.11c0-5.98,1.45-10.49,4.36-13.53c2.91-3.04,7.16-4.56,12.76-4.56
		c5.6,0,9.85,1.52,12.76,4.56c2.91,3.04,4.36,7.55,4.36,13.53v33.03c0,6.25-1.45,11.06-4.36,14.45c-2.91,3.39-7.16,5.09-12.76,5.09
		C488.2,92.68,483.95,90.97,481.04,87.55z M496.3,78.3c0.43-1.08,0.65-2.58,0.65-4.52V39.87c0-1.51-0.2-2.73-0.61-3.67
		c-0.4-0.94-1.23-1.41-2.46-1.41c-2.32,0-3.47,1.75-3.47,5.25v33.84c0,1.99,0.24,3.5,0.73,4.52c0.49,1.02,1.37,1.53,2.66,1.53
		C495.04,79.92,495.87,79.38,496.3,78.3z"/>
	<path d="M541.52,92.03V22.67h13.89v57.58h14.29v11.79H541.52z"/>
	<path d="M598.61,92.03V22.67h27.78v13.4h-13.65v13.49h13.08v13.08h-13.08v15.91h14.53v13.48H598.61z"/>
</g>
<g>
	<path d="M161.84,147.25c-1.63-0.9-2.91-2.14-3.84-3.71c-0.93-1.58-1.39-3.35-1.39-5.32c0-1.97,0.46-3.75,1.39-5.32
		c0.93-1.58,2.21-2.81,3.86-3.71c1.64-0.9,3.48-1.35,5.51-1.35c1.58,0,3.04,0.27,4.35,0.8c1.31,0.53,2.44,1.32,3.36,2.36l-1.89,1.83
		c-1.53-1.6-3.43-2.41-5.71-2.41c-1.51,0-2.87,0.34-4.09,1.02c-1.22,0.68-2.17,1.61-2.86,2.8c-0.69,1.19-1.03,2.52-1.03,3.99
		c0,1.47,0.34,2.8,1.03,3.99c0.69,1.19,1.64,2.12,2.86,2.8c1.22,0.68,2.58,1.01,4.09,1.01c2.26,0,4.17-0.81,5.71-2.44l1.89,1.83
		c-0.93,1.04-2.05,1.84-3.38,2.38c-1.32,0.54-2.78,0.81-4.36,0.81C165.3,148.6,163.47,148.15,161.84,147.25z"/>
	<path d="M227.31,148.36l-4.38-6.23c-0.54,0.04-0.97,0.06-1.28,0.06h-5.02v6.18h-2.9v-20.3h7.92c2.63,0,4.7,0.63,6.21,1.88
		c1.51,1.26,2.26,2.99,2.26,5.19c0,1.57-0.39,2.9-1.16,4c-0.77,1.1-1.88,1.9-3.31,2.41l4.81,6.81H227.31z M225.77,138.53
		c0.97-0.79,1.45-1.92,1.45-3.39c0-1.47-0.48-2.6-1.45-3.38c-0.97-0.78-2.37-1.17-4.21-1.17h-4.93v9.13h4.93
		C223.4,139.72,224.8,139.33,225.77,138.53z"/>
	<path d="M272.95,147.25c-1.64-0.9-2.93-2.14-3.87-3.73c-0.94-1.58-1.41-3.35-1.41-5.31c0-1.95,0.47-3.72,1.41-5.31
		c0.94-1.58,2.23-2.83,3.87-3.73c1.64-0.9,3.49-1.35,5.54-1.35c2.03,0,3.87,0.45,5.51,1.35c1.64,0.9,2.93,2.14,3.86,3.71
		c0.93,1.58,1.39,3.35,1.39,5.32c0,1.97-0.46,3.75-1.39,5.32c-0.93,1.58-2.21,2.81-3.86,3.71c-1.64,0.9-3.48,1.35-5.51,1.35
		C276.44,148.6,274.6,148.15,272.95,147.25z M282.51,145c1.19-0.68,2.13-1.61,2.81-2.8c0.69-1.19,1.03-2.52,1.03-3.99
		c0-1.47-0.34-2.8-1.03-3.99c-0.69-1.19-1.62-2.12-2.81-2.8s-2.53-1.02-4.02-1.02s-2.84,0.34-4.05,1.02
		c-1.21,0.68-2.16,1.61-2.84,2.8c-0.69,1.19-1.03,2.52-1.03,3.99c0,1.47,0.34,2.8,1.03,3.99c0.69,1.19,1.63,2.12,2.84,2.8
		c1.21,0.68,2.56,1.01,4.05,1.01S281.32,145.68,282.51,145z"/>
	<path d="M340.84,143.29h-10.79l-2.23,5.08h-2.99l9.19-20.3h2.87l9.22,20.3h-3.04L340.84,143.29z M339.83,140.97l-4.38-9.95
		l-4.38,9.95H339.83z"/>
	<path d="M386.66,130.59h-6.96v-2.52h16.79v2.52h-6.96v17.78h-2.87V130.59z"/>
	<path d="M434.16,128.06h2.9v20.3h-2.9V128.06z"/>
	<path d="M490.6,143.29h-10.79l-2.23,5.08h-2.99l9.19-20.3h2.87l9.22,20.3h-3.04L490.6,143.29z M489.58,140.97l-4.38-9.95
		l-4.38,9.95H489.58z"/>
</g>
</svg>
